<svg width="259" height="47" viewBox="0 0 259 47" fill="none" xmlns="http://www.w3.org/2000/svg">
<path d="M20.52 12.736L19.704 18.352H7.992V26.32H18.216V31.84H7.992V40.336H20.52V46H0.119995V12.736H20.52ZM14.28 0.112L17.112 5.776L5.592 9.952L3.672 6.112L14.28 0.112Z" fill="#141414"/>
<path d="M38.5969 19.792C39.5249 19.792 40.3729 19.904 41.1409 20.128L39.9409 27.472C38.9809 27.248 38.2129 27.136 37.6369 27.136C36.1329 27.136 34.9809 27.664 34.1809 28.72C33.4129 29.744 32.8049 31.296 32.3569 33.376V46H24.7729V20.512H31.3969L32.0209 25.456C32.5969 23.696 33.4609 22.32 34.6129 21.328C35.7969 20.304 37.1249 19.792 38.5969 19.792Z" fill="#141414"/>
<path d="M51.6225 20.512V46H44.0385V20.512H51.6225ZM47.7825 7.072C49.0945 7.072 50.1665 7.488 50.9985 8.32C51.8625 9.12 52.2945 10.144 52.2945 11.392C52.2945 12.64 51.8625 13.68 50.9985 14.512C50.1665 15.312 49.0945 15.712 47.7825 15.712C46.4705 15.712 45.3985 15.312 44.5665 14.512C43.7345 13.68 43.3185 12.64 43.3185 11.392C43.3185 10.144 43.7345 9.12 44.5665 8.32C45.3985 7.488 46.4705 7.072 47.7825 7.072Z" fill="#141414"/>
<path d="M68.6254 19.696C70.3854 19.696 71.9694 19.952 73.3774 20.464C74.7854 20.976 76.1134 21.76 77.3614 22.816L74.0974 27.328C72.4974 26.112 70.8814 25.504 69.2494 25.504C67.5534 25.504 66.2734 26.128 65.4094 27.376C64.5454 28.624 64.1134 30.64 64.1134 33.424C64.1134 36.112 64.5454 38.016 65.4094 39.136C66.2734 40.256 67.5214 40.816 69.1534 40.816C70.0174 40.816 70.8014 40.688 71.5054 40.432C72.2094 40.144 73.0574 39.696 74.0494 39.088L77.3614 43.792C74.8334 45.808 71.9694 46.816 68.7694 46.816C66.1774 46.816 63.9374 46.272 62.0494 45.184C60.1614 44.064 58.7054 42.512 57.6814 40.528C56.6574 38.512 56.1454 36.16 56.1454 33.472C56.1454 30.784 56.6574 28.4 57.6814 26.32C58.7054 24.24 60.1614 22.624 62.0494 21.472C63.9374 20.288 66.1294 19.696 68.6254 19.696Z" fill="#141414"/>
<path d="M103.033 33.28H99.9607V46H92.0887V12.736H102.985C107.529 12.736 110.937 13.568 113.209 15.232C115.513 16.896 116.665 19.44 116.665 22.864C116.665 25.008 116.153 26.8 115.129 28.24C114.105 29.648 112.489 30.848 110.281 31.84L118.729 46H109.849L103.033 33.28ZM99.9607 27.856H103.273C105.033 27.856 106.345 27.456 107.209 26.656C108.105 25.856 108.553 24.592 108.553 22.864C108.553 21.264 108.073 20.096 107.113 19.36C106.185 18.624 104.745 18.256 102.793 18.256H99.9607V27.856Z" fill="#141414"/>
<path d="M141.357 38.608C141.357 39.568 141.485 40.272 141.741 40.72C142.029 41.168 142.477 41.504 143.085 41.728L141.501 46.672C139.933 46.544 138.653 46.208 137.661 45.664C136.669 45.088 135.901 44.192 135.357 42.976C133.693 45.536 131.133 46.816 127.677 46.816C125.149 46.816 123.133 46.08 121.629 44.608C120.125 43.136 119.373 41.216 119.373 38.848C119.373 36.064 120.397 33.936 122.445 32.464C124.493 30.992 127.453 30.256 131.325 30.256H133.917V29.152C133.917 27.648 133.597 26.624 132.957 26.08C132.317 25.504 131.197 25.216 129.597 25.216C128.765 25.216 127.757 25.344 126.573 25.6C125.389 25.824 124.173 26.144 122.925 26.56L121.197 21.568C122.797 20.96 124.429 20.496 126.093 20.176C127.789 19.856 129.357 19.696 130.797 19.696C134.445 19.696 137.117 20.448 138.813 21.952C140.509 23.456 141.357 25.712 141.357 28.72V38.608ZM129.885 41.392C131.613 41.392 132.957 40.576 133.917 38.944V34.432H132.045C130.317 34.432 129.021 34.736 128.157 35.344C127.325 35.952 126.909 36.896 126.909 38.176C126.909 39.2 127.165 40 127.677 40.576C128.221 41.12 128.957 41.392 129.885 41.392Z" fill="#141414"/>
<path d="M162.326 19.696C164.534 19.696 166.262 20.368 167.51 21.712C168.758 23.056 169.382 24.944 169.382 27.376V46H161.798V28.672C161.798 27.392 161.59 26.512 161.174 26.032C160.79 25.52 160.198 25.264 159.398 25.264C157.862 25.264 156.39 26.368 154.982 28.576V46H147.398V20.512H154.022L154.55 23.536C155.638 22.256 156.806 21.296 158.054 20.656C159.334 20.016 160.758 19.696 162.326 19.696Z" fill="#141414"/>
<path d="M193.053 20.512V25.84L181.533 40.24H193.293L192.621 46H172.749V40.624L184.317 26.224H173.757V20.512H193.053Z" fill="#141414"/>
<path d="M216.685 38.608C216.685 39.568 216.813 40.272 217.069 40.72C217.357 41.168 217.805 41.504 218.413 41.728L216.829 46.672C215.261 46.544 213.981 46.208 212.989 45.664C211.997 45.088 211.229 44.192 210.685 42.976C209.021 45.536 206.461 46.816 203.005 46.816C200.477 46.816 198.461 46.08 196.957 44.608C195.453 43.136 194.701 41.216 194.701 38.848C194.701 36.064 195.725 33.936 197.773 32.464C199.821 30.992 202.781 30.256 206.653 30.256H209.245V29.152C209.245 27.648 208.925 26.624 208.285 26.08C207.645 25.504 206.525 25.216 204.925 25.216C204.093 25.216 203.085 25.344 201.901 25.6C200.717 25.824 199.501 26.144 198.253 26.56L196.525 21.568C198.125 20.96 199.757 20.496 201.421 20.176C203.117 19.856 204.685 19.696 206.125 19.696C209.773 19.696 212.445 20.448 214.141 21.952C215.837 23.456 216.685 25.712 216.685 28.72V38.608ZM205.213 41.392C206.941 41.392 208.285 40.576 209.245 38.944V34.432H207.373C205.645 34.432 204.349 34.736 203.485 35.344C202.653 35.952 202.237 36.896 202.237 38.176C202.237 39.2 202.493 40 203.005 40.576C203.549 41.12 204.285 41.392 205.213 41.392Z" fill="#141414"/>
<path d="M237.654 19.696C239.862 19.696 241.59 20.368 242.838 21.712C244.086 23.056 244.71 24.944 244.71 27.376V46H237.126V28.672C237.126 27.392 236.918 26.512 236.502 26.032C236.118 25.52 235.526 25.264 234.726 25.264C233.19 25.264 231.718 26.368 230.31 28.576V46H222.726V20.512H229.35L229.878 23.536C230.966 22.256 232.134 21.296 233.382 20.656C234.662 20.016 236.086 19.696 237.654 19.696Z" fill="#141414"/>
<path d="M258.013 20.512V46H250.429V20.512H258.013ZM254.173 7.072C255.485 7.072 256.557 7.488 257.389 8.32C258.253 9.12 258.685 10.144 258.685 11.392C258.685 12.64 258.253 13.68 257.389 14.512C256.557 15.312 255.485 15.712 254.173 15.712C252.861 15.712 251.789 15.312 250.957 14.512C250.125 13.68 249.709 12.64 249.709 11.392C249.709 10.144 250.125 9.12 250.957 8.32C251.789 7.488 252.861 7.072 254.173 7.072Z" fill="#141414"/>
</svg>
